<?xml version="1.0" standalone="no"?>
<!DOCTYPE svg PUBLIC "-//W3C//DTD SVG 20010904//EN"
 "http://www.w3.org/TR/2001/REC-SVG-20010904/DTD/svg10.dtd">
<svg version="1.0" xmlns="http://www.w3.org/2000/svg"
 width="500.000000pt" height="500.000000pt" viewBox="0 0 500.000000 500.000000"
 preserveAspectRatio="xMidYMid meet">

<g transform="translate(0.000000,500.000000) scale(0.100000,-0.100000)"
fill="#000000" stroke="none">
<path d="M2330 4993 c-117 -9 -343 -47 -463 -78 -423 -110 -815 -335 -1131
-649 -390 -388 -630 -873 -712 -1441 -24 -164 -24 -486 0 -650 124 -855 619
-1542 1381 -1915 361 -177 687 -253 1090 -254 303 0 507 32 793 126 669 219
1226 731 1506 1383 136 316 200 630 200 985 0 219 -15 354 -59 550 -200 891
-874 1601 -1760 1854 -259 74 -587 108 -845 89z m535 -57 c1061 -169 1872
-965 2062 -2026 23 -129 26 -172 27 -395 1 -276 -10 -377 -65 -604 -114 -467
-378 -909 -735 -1232 -184 -167 -351 -279 -577 -390 -228 -111 -461 -184 -722
-226 -155 -25 -555 -25 -710 0 -816 131 -1484 616 -1844 1338 -122 244 -196
477 -238 744 -25 157 -25 555 1 715 143 912 755 1653 1619 1962 141 50 315 93
460 112 62 9 126 18 142 20 71 10 485 -3 580 -18z"/>
</g>
</svg>
